<svg id="Layer_1" data-name="Layer 1" xmlns="http://www.w3.org/2000/svg" viewBox="0 0 230 226.23">
  <defs>
    <style>
      .cls-1, .cls-2 {
        fill: #ffffff;
      }

      .cls-1, .cls-4 {
        stroke: #ffffff;
        stroke-miterlimit: 10;
      }

      .cls-1 {
        stroke-width: 0.75px;
      }

      .cls-3 {
        fill: #ffffff;
      }

      .cls-4 {
        fill: none;
        stroke-width: 3px;
      }
    </style>
  </defs>
  <title>logo</title>
  <g id="Isolation_Mode" data-name="Isolation Mode">
    <g>
      <path class="cls-1" d="M294.42,491.27l-1-145.81a.56.56,0,0,1,.56-.56h9.31a.54.54,0,0,1,.46.25l97.1,145.92a.55.55,0,0,1-.15.76.53.53,0,0,1-.17.08l-10.12,2.81a.56.56,0,0,1-.61-.23L364.6,456.8a.58.58,0,0,0-.46-.25h-56a.56.56,0,0,0-.55.56l.33,37a.56.56,0,0,1-.56.56h-.12l-12.39-2.85A.56.56,0,0,1,294.42,491.27Zm60.73-48.5-47.34-71a.57.57,0,0,0-.79-.1.59.59,0,0,0-.21.41l.5,71a.55.55,0,0,0,.55.55h46.85a.55.55,0,0,0,.53-.56A.53.53,0,0,0,355.15,442.77Z" transform="translate(-183 -339.57)"/>
      <path class="cls-1" d="M305.64,349.85l86.12,137.76a.56.56,0,0,1-.19.77.31.31,0,0,1-.13.06l-1.39.41a.55.55,0,0,1-.63-.23l-23-36.72a.56.56,0,0,0-.47-.26h-58.9a.56.56,0,0,0-.56.56l.16,36.06a.57.57,0,0,1-.57.56l-.12,0-1.81-.46a.59.59,0,0,1-.42-.54l-1.09-137.39a.56.56,0,0,1,.56-.56h2.44m.76,98.73h57A.56.56,0,0,0,364,448a.6.6,0,0,0-.08-.29l-57.27-91.55a.55.55,0,0,0-.77-.13.54.54,0,0,0-.23.43l.81,92.1M309,340H293.51a.56.56,0,0,0-.56.56v6.17l1.19,138.64.1,15.14a.55.55,0,0,0,.56.55h21a.56.56,0,0,0,.56-.56l-.05-8.1-.17-30a.56.56,0,0,1,.55-.56h45.8a.56.56,0,0,1,.47.26l19.09,30.34,5.26,8.4a.56.56,0,0,0,.47.26h23.47a.55.55,0,0,0,.47-.85l-9.56-14.84L315.85,346.68l-4.06-6.47a.56.56,0,0,0-.47-.26Zm6.9,98.18-.44-50.41a.55.55,0,0,1,.61-.5.56.56,0,0,1,.39.21l31.43,50.4a.55.55,0,0,1-.47.85h-31a.55.55,0,0,1-.54-.55Z" transform="translate(-183 -339.57)"/>
    </g>
    <g>
      <polygon class="cls-2" points="84.61 156.41 84.61 35.78 17.17 156.41 5.76 156.41 5.76 5.41 18.93 5.41 18.93 126.05 86.47 5.41 97.83 5.41 97.83 156.41 84.61 156.41"/>
      <path class="cls-2" d="M275.85,350v140.2a.6.6,0,0,1-.58.6h-2a.6.6,0,0,1-.6-.6h0V358.33a.58.58,0,0,0-.58-.6.56.56,0,0,0-.53.31L197.38,490.61a.61.61,0,0,1-.52.31h-2.48a.58.58,0,0,1-.59-.59h0V350.75a.58.58,0,0,1,.57-.59h1.95a.58.58,0,0,1,.59.57v132a.6.6,0,0,0,.61.59.61.61,0,0,0,.51-.3l74.14-132.58a.59.59,0,0,1,.52-.3h3.07m10.1-10.06h-19a.59.59,0,0,0-.52.3l-2.7,4.73-55.5,99.23a.6.6,0,0,1-1.12-.29V340.55a.6.6,0,0,0-.58-.6h-22a.6.6,0,0,0-.6.6V500.27a.58.58,0,0,0,.59.59h18.38a.6.6,0,0,0,.52-.3l2.7-4.72,55.45-99.18a.59.59,0,0,1,.82-.22.61.61,0,0,1,.3.51V500.42a.58.58,0,0,0,.57.59h22.11a.59.59,0,0,0,.6-.58h0V340.1Z" transform="translate(-183 -339.57)"/>
    </g>
  </g>
  <g>
    <g>
      <g>
        <polygon class="cls-3" points="19.1 222.03 19.1 198.03 5.7 222.03 3.4 222.03 3.4 192.03 6 192.03 6 216.03 19.5 192.03 21.7 192.03 21.7 222.03 19.1 222.03"/>
        <path class="cls-3" d="M203.7,532.6v28h-.6V533.8l-15,26.8h-.7v-28h.6v26.8l15-26.8h.7m2-2h-3.9l-.6,1-11.3,20.1V530.6h-4.6v32h3.9l.6-1,11.3-20.1v21.1h4.6v-32Z" transform="translate(-183 -339.57)"/>
      </g>
      <g>
        <polygon class="cls-3" points="47.3 222.03 47.3 197.72 39.2 211.13 31.1 197.72 31.1 222.03 28.5 222.03 28.5 192.03 30.7 192.03 39.2 206.03 47.7 192.03 49.9 192.03 49.9 222.03 47.3 222.03"/>
        <path class="cls-3" d="M231.9,532.6v28h-.6V533.7l-9.1,15-9.1-15v26.9h-.6v-28h.7l9,15,9.1-15h.6m2-2h-3.8l-.6,1-7.4,12.1-7.3-12.1-.6-1h-3.8v32H215V540.9l5.4,8.9,1.7,2.8,1.7-2.8,5.4-8.9v21.7h4.6l.1-32Z" transform="translate(-183 -339.57)"/>
      </g>
      <g>
        <polygon class="cls-3" points="72.4 222.03 72.4 194.32 59.4 194.32 59.4 222.03 56.7 222.03 56.7 191.63 75 191.63 75 222.03 72.4 222.03"/>
        <path class="cls-3" d="M257,532.2v28.4h-.6V532.9h-15v27.7h-.6V532.2H257m2-2H238.7v32.4h4.6V534.9h11v27.7H259Z" transform="translate(-183 -339.57)"/>
      </g>
      <g>
        <rect class="cls-3" x="82.1" y="210.33" width="14.6" height="2.6"/>
        <path class="cls-3" d="M278.7,550.9v.6H266.2v-.6h12.5m2-2H264.1v4.6h16.5v-4.6Z" transform="translate(-183 -339.57)"/>
      </g>
      <g>
        <path class="cls-3" d="M286.5,561.2l10-29.6h2.1l10,29.6-2.5.6-2.6-7.7H291.8l-2.6,7.7Zm16-9.7-5-14.8-5,14.8Z" transform="translate(-183 -339.57)"/>
        <path class="cls-3" d="M297.8,532.6l9.4,27.9-.6.1-2.5-7.5H291l-2.6,7.5-.6-.1,9.4-27.9h.6m-6.7,19.9h12.7l-6.4-19-6.3,19m8.1-21.9h-3.5l-.5,1.4-9.4,28-.7,2,2.1.5.6.1,1.8.5.6-1.8,2.1-6.2h10.3l2.1,6.2.6,1.8,1.8-.5.6-.1,2.1-.5-.7-2-9.3-28-.6-1.4Zm-5.3,19.9,3.6-10.7,3.6,10.7Z" transform="translate(-183 -339.57)"/>
      </g>
      <g>
        <path class="cls-3" d="M316.9,561.9v-2.6h10.4a2.77,2.77,0,0,0,1.3-.3,4.13,4.13,0,0,0,1.1-.7,2.59,2.59,0,0,0,.7-1.1,3.08,3.08,0,0,0,.3-1.3v-6.5h-6.5a9.22,9.22,0,0,1-3.6-.7,9.72,9.72,0,0,1-2.9-1.9,10,10,0,0,1-2-2.9,8.42,8.42,0,0,1-.7-3.5v-8.8h2.6v8.8a7,7,0,0,0,.5,2.5,6.65,6.65,0,0,0,3.5,3.5,7.51,7.51,0,0,0,2.6.5h6.5V531.6h2.6v24.3a5.93,5.93,0,0,1-.5,2.3,6.25,6.25,0,0,1-3.2,3.2,6,6,0,0,1-2.4.5Z" transform="translate(-183 -339.57)"/>
        <path class="cls-3" d="M332.3,532.6v23.3a4.06,4.06,0,0,1-.4,1.9,5.33,5.33,0,0,1-2.7,2.7,4.48,4.48,0,0,1-2,.4h-9.4v-.6h9.4a4.67,4.67,0,0,0,1.7-.3,4.32,4.32,0,0,0,2.3-2.3,4.67,4.67,0,0,0,.3-1.7v-7.5H324a8.66,8.66,0,0,1-3.2-.6,9,9,0,0,1-2.6-1.7,10,10,0,0,1-1.8-2.6,8.53,8.53,0,0,1-.6-3.1v-7.8h.6v7.8a7.49,7.49,0,0,0,2.2,5.3,7.76,7.76,0,0,0,2.4,1.6,7.65,7.65,0,0,0,3,.6h7.5V532.6h.8m2-2h-4.6v15.3h-5.6a5.48,5.48,0,0,1-5.2-3.4,5.22,5.22,0,0,1-.4-2.1v-9.8h-4.6v9.8a9.9,9.9,0,0,0,3,7.1,9.88,9.88,0,0,0,3.2,2.1,11,11,0,0,0,4,.8h5.5v5.5a2.92,2.92,0,0,1-.2.9,2.37,2.37,0,0,1-1.3,1.3,2.92,2.92,0,0,1-.9.2H315.8v4.6h11.4a9.18,9.18,0,0,0,2.8-.5,7.16,7.16,0,0,0,3.7-3.7,6.6,6.6,0,0,0,.6-2.7V530.6Z" transform="translate(-183 -339.57)"/>
      </g>
      <g>
        <path class="cls-3" d="M358.9,564.7v-2.8H342.7v2.8h-2.6v-5.4h3.3l3.1-28h11.9v28h3.1v5.4Zm-3.2-5.4V533.9h-6.9L346,559.3Z" transform="translate(-183 -339.57)"/>
        <path class="cls-3" d="M357.4,532.2v28h3.1v3.4h-.6v-2.7H341.7v2.8h-.6v-3.4h3.2l3.1-28,10-.1m-12.6,28.1h11.9V532.9h-8.8l-3.1,27.4m14.5-30H345.5l-.2,1.8-2.9,26.3H339v7.4h4.6v-2.9h14.2v2.8h4.6v-7.4h-3.1v-28Zm-9.6,4.6h5v23.4h-7.6l2.6-23.4Z" transform="translate(-183 -339.57)"/>
      </g>
      <g>
        <polygon class="cls-3" points="200.9 222.03 200.9 198.03 187.5 222.03 185.3 222.03 185.3 192.03 187.9 192.03 187.9 216.03 201.3 192.03 203.6 192.03 203.6 222.03 200.9 222.03"/>
        <path class="cls-3" d="M385.6,532.6v28H385V533.8l-15,26.8h-.7v-28h.6v26.8l15-26.8h.7m2-2h-3.9l-.6,1-11.3,20.1V530.6h-4.6v32h3.9l.6-1L383,541.5v21.1h4.6v-32Z" transform="translate(-183 -339.57)"/>
      </g>
      <g>
        <polygon class="cls-3" points="218.2 222.03 218.2 194.32 210.7 194.32 210.7 191.63 228.3 191.63 228.3 194.32 220.8 194.32 220.8 222.03 218.2 222.03"/>
        <path class="cls-3" d="M410.3,532.2v.7h-7.5v27.7h-.6V532.9h-7.5v-.6l15.6-.1m2-1.9H392.6v4.6h7.5v27.7h4.6V534.9h7.5l.1-4.6Z" transform="translate(-183 -339.57)"/>
      </g>
    </g>
    <line class="cls-4" y1="177.33" x2="230" y2="177.33"/>
  </g>
</svg>
