<svg id="Layer_1" data-name="Layer 1" xmlns="http://www.w3.org/2000/svg" viewBox="0 0 230 60.16">
  <defs>
    <style>
      .cls-1 {
        fill: #ffffff;
      }

      .cls-2 {
        fill: none;
        stroke: #ffffff;
        stroke-miterlimit: 10;
        stroke-width: 3px;
      }
    </style>
  </defs>
  <title>logotablet</title>
  <g>
    <g>
      <polygon class="cls-1" points="19.06 45.17 19.06 21.18 5.65 45.17 3.38 45.17 3.38 15.14 6 15.14 6 39.13 19.43 15.14 21.69 15.14 21.69 45.17 19.06 45.17"/>
      <path class="cls-1" d="M37.93,91.67v28H37.3V92.87l-15,26.83h-.68v-28h.62v26.82l15-26.82h.68m2-2H36.07l-.57,1L24.24,110.83V89.67H19.62v32h3.86l.57-1L35.3,100.55V121.7h4.63v-32Z" transform="translate(-17.24 -75.53)"/>
    </g>
    <g>
      <polygon class="cls-1" points="47.28 45.17 47.28 20.86 39.18 34.23 31.09 20.87 31.09 45.17 28.46 45.17 28.46 15.14 30.7 15.14 39.18 29.18 47.67 15.14 49.9 15.14 49.9 45.17 47.28 45.17"/>
      <path class="cls-1" d="M66.14,91.67v28h-.62V92.81l-9.1,15-9.08-15V119.7H46.7v-28h.68l9,15,9.06-15h.66m2-2H64.31l-.58,1-7.35,12.14L49.05,90.7l-.58-1H44.66v32H49.3V100l5.37,8.88,1.7,2.83,1.72-2.82,5.39-8.9v21.73H68.1v-32Z" transform="translate(-17.24 -75.53)"/>
    </g>
    <g>
      <polygon class="cls-1" points="72.36 45.17 72.36 17.46 59.32 17.46 59.32 45.17 56.68 45.17 56.68 14.82 74.99 14.82 74.99 45.17 72.36 45.17"/>
      <path class="cls-1" d="M91.24,91.35V119.7h-.63V92h-15v27.71H75V91.35H91.24m2-2H72.92V121.7h4.64V94h11v27.71h4.68Z" transform="translate(-17.24 -75.53)"/>
    </g>
    <g>
      <rect class="cls-1" x="82.08" y="33.52" width="14.55" height="2.63"/>
      <path class="cls-1" d="M112.86,110v.63H100.32V110h12.54m2-2H98.32v4.63h16.54Z" transform="translate(-17.24 -75.53)"/>
    </g>
    <g>
      <path class="cls-1" d="M120.67,120.32l10-29.65h2.1l9.95,29.65-2.54.63-2.62-7.73H125.83L123.24,121Zm16-9.71-5-14.83-5,14.83Z" transform="translate(-17.24 -75.53)"/>
      <path class="cls-1" d="M132,91.67l9.38,27.94-.6.15-2.55-7.54H125.12l-2.56,7.54-.59-.15,9.38-27.94H132m-6.7,19.94h12.74l-6.38-19-6.36,19m8.13-21.94h-3.53L129.45,91l-9.38,28-.69,2,2.11.52.59.15,1.79.45.59-1.75,2.09-6.18H136.8l2.1,6.18.59,1.75,1.78-.45.6-.15,2.1-.52-.73-2L133.9,91l-.46-1.36Zm-5.35,19.94,3.58-10.69,3.57,10.69Z" transform="translate(-17.24 -75.53)"/>
    </g>
    <g>
      <path class="cls-1" d="M151.06,121V118.4h10.4a3.19,3.19,0,0,0,1.33-.26,3.11,3.11,0,0,0,1.07-.72,3.24,3.24,0,0,0,.73-1.06,3.48,3.48,0,0,0,.26-1.31v-6.48h-6.51a9,9,0,0,1-3.58-.71,9.46,9.46,0,0,1-2.9-1.94,9.14,9.14,0,0,1-2-2.89,8.84,8.84,0,0,1-.72-3.55V90.69h2.64v8.79a6.18,6.18,0,0,0,.5,2.51,6.35,6.35,0,0,0,3.47,3.45,6.42,6.42,0,0,0,2.56.5h6.51V90.67h2.63V115a6.07,6.07,0,0,1-.47,2.34,6,6,0,0,1-3.2,3.17,5.74,5.74,0,0,1-2.35.47Z" transform="translate(-17.24 -75.53)"/>
      <path class="cls-1" d="M166.48,91.67V115a4.94,4.94,0,0,1-.39,1.94,5,5,0,0,1-1.07,1.59,5.08,5.08,0,0,1-1.6,1.06,4.89,4.89,0,0,1-2,.39H152v-.63h9.4a4.38,4.38,0,0,0,4.05-2.65,4.34,4.34,0,0,0,.34-1.7v-7.48h-7.47a8.09,8.09,0,0,1-3.18-.63,8.45,8.45,0,0,1-2.6-1.73,8,8,0,0,1-1.75-2.58,7.75,7.75,0,0,1-.64-3.15V91.67h.64v7.79a7.37,7.37,0,0,0,2.19,5.28,7.72,7.72,0,0,0,2.39,1.6,7.36,7.36,0,0,0,3,.58h7.51V91.67h.63m2-2H163.9v15.25h-5.56a5.46,5.46,0,0,1-5.11-3.34,5.31,5.31,0,0,1-.42-2.12V89.67h-4.64v9.79a9.88,9.88,0,0,0,.8,3.94,10.07,10.07,0,0,0,2.19,3.21,10.4,10.4,0,0,0,3.21,2.15,10.16,10.16,0,0,0,4,.79h5.51V115a2.38,2.38,0,0,1-.18.91,2.41,2.41,0,0,1-1.27,1.26,2.53,2.53,0,0,1-.94.18h-11.4V122h11.4a6.86,6.86,0,0,0,2.75-.55,7.15,7.15,0,0,0,2.21-1.48,6.82,6.82,0,0,0,1.5-2.21,6.62,6.62,0,0,0,.56-2.74V89.67Z" transform="translate(-17.24 -75.53)"/>
    </g>
    <g>
      <path class="cls-1" d="M193.07,123.8V121H176.88v2.79h-2.64V118.4h3.27l3.13-28h11.91v28h3.15v5.42Zm-3.15-5.42V93H183l-2.77,25.35Z" transform="translate(-17.24 -75.53)"/>
      <path class="cls-1" d="M191.56,91.35v28h3.15v3.42h-.64V120H175.88v2.79h-.64V119.4h3.16l3.13-28h10M179,119.4h11.85V92h-8.8L179,119.42m14.49-30H179.75l-.2,1.78-2.92,26.25h-3.39v7.42h4.63V122h14.19v2.79h4.64V117.4h-3.15v-28ZM183.91,94h5v23.39H181.3L183.9,94Z" transform="translate(-17.24 -75.53)"/>
    </g>
    <g>
      <polygon class="cls-1" points="200.91 45.17 200.91 21.18 187.5 45.17 185.23 45.17 185.23 15.14 187.85 15.14 187.85 39.13 201.28 15.14 203.54 15.14 203.54 45.17 200.91 45.17"/>
      <path class="cls-1" d="M219.78,91.67v28h-.63V92.87l-15,26.83h-.68v-28h.62v26.82l15-26.82h.68m2-2h-3.85l-.57,1-11.26,20.13V89.67h-4.62v32h3.85l.58-1,11.25-20.12V121.7h4.63v-32Z" transform="translate(-17.24 -75.53)"/>
    </g>
    <g>
      <polygon class="cls-1" points="218.15 45.17 218.15 17.46 210.62 17.46 210.62 14.82 228.3 14.82 228.3 17.46 220.79 17.46 220.79 45.17 218.15 45.17"/>
      <path class="cls-1" d="M244.54,91.35V92H237v27.71h-.64V92h-7.53v-.64h15.68m2-2H226.86V94h7.53v27.71H239V94h7.51V89.39Z" transform="translate(-17.24 -75.53)"/>
    </g>
  </g>
  <line class="cls-2" y1="1.5" x2="230" y2="1.5"/>
  <line class="cls-2" y1="58.66" x2="230" y2="58.66"/>
</svg>
