<svg id="Layer_1" data-name="Layer 1" xmlns="http://www.w3.org/2000/svg" viewBox="0 0 228.36 161.85">
  <defs>
    <style>
      .cls-1, .cls-2 {
        fill: #ffffff;
      }

      .cls-1 {
        stroke: #ffffff;
        stroke-miterlimit: 10;
        stroke-width: 0.75px;
      }
    </style>
  </defs>
  <title>logo mobile</title>
  <g id="Isolation_Mode" data-name="Isolation Mode">
    <g>
      <path class="cls-1" d="M294.42,491.27l-1-145.81a.56.56,0,0,1,.56-.56h9.31a.54.54,0,0,1,.46.25l97.1,145.92a.55.55,0,0,1-.15.76.53.53,0,0,1-.17.08l-10.12,2.81a.56.56,0,0,1-.61-.23L364.6,456.8a.58.58,0,0,0-.46-.25h-56a.56.56,0,0,0-.55.56l.33,37a.56.56,0,0,1-.56.56h-.12l-12.39-2.85A.56.56,0,0,1,294.42,491.27Zm60.73-48.5-47.34-71a.57.57,0,0,0-.79-.1.59.59,0,0,0-.21.41l.5,71a.55.55,0,0,0,.55.55h46.85a.55.55,0,0,0,.53-.56A.53.53,0,0,0,355.15,442.77Z" transform="translate(-183.82 -339.57)"/>
      <path class="cls-1" d="M305.64,349.85l86.12,137.76a.56.56,0,0,1-.19.77.31.31,0,0,1-.13.06l-1.39.41a.55.55,0,0,1-.63-.23l-23-36.72a.56.56,0,0,0-.47-.26h-58.9a.56.56,0,0,0-.56.56l.16,36.06a.57.57,0,0,1-.57.56l-.12,0-1.81-.46a.59.59,0,0,1-.42-.54l-1.09-137.39a.56.56,0,0,1,.56-.56h2.44m.76,98.73h57A.56.56,0,0,0,364,448a.6.6,0,0,0-.08-.29l-57.27-91.55a.55.55,0,0,0-.77-.13.54.54,0,0,0-.23.43l.81,92.1M309,340H293.51a.56.56,0,0,0-.56.56v6.17l1.19,138.64.1,15.14a.55.55,0,0,0,.56.55h21a.56.56,0,0,0,.56-.56l-.05-8.1-.17-30a.56.56,0,0,1,.55-.56h45.8a.56.56,0,0,1,.47.26l19.09,30.34,5.26,8.4a.56.56,0,0,0,.47.26h23.47a.55.55,0,0,0,.47-.85l-9.56-14.84L315.85,346.68l-4.06-6.47a.56.56,0,0,0-.47-.26Zm6.9,98.18-.44-50.41a.55.55,0,0,1,.61-.5.56.56,0,0,1,.39.21l31.43,50.4a.55.55,0,0,1-.47.85h-31a.55.55,0,0,1-.54-.55Z" transform="translate(-183.82 -339.57)"/>
    </g>
    <g>
      <polygon class="cls-2" points="83.79 156.41 83.79 35.78 16.35 156.41 4.94 156.41 4.94 5.41 18.11 5.41 18.11 126.05 85.65 5.41 97.01 5.41 97.01 156.41 83.79 156.41"/>
      <path class="cls-2" d="M275.85,350v140.2a.6.6,0,0,1-.58.6h-2a.6.6,0,0,1-.6-.6h0V358.33a.58.58,0,0,0-.58-.6.56.56,0,0,0-.53.31L197.38,490.61a.61.61,0,0,1-.52.31h-2.48a.58.58,0,0,1-.59-.59h0V350.75a.58.58,0,0,1,.57-.59h1.95a.58.58,0,0,1,.59.57v132a.6.6,0,0,0,.61.59.61.61,0,0,0,.51-.3l74.14-132.58a.59.59,0,0,1,.52-.3h3.07m10.1-10.06h-19a.59.59,0,0,0-.52.3l-2.7,4.73-55.5,99.23a.6.6,0,0,1-1.12-.29V340.55a.6.6,0,0,0-.58-.6h-22a.6.6,0,0,0-.6.6V500.27a.58.58,0,0,0,.59.59h18.38a.6.6,0,0,0,.52-.3l2.7-4.72,55.45-99.18a.59.59,0,0,1,.82-.22.61.61,0,0,1,.3.51V500.42a.58.58,0,0,0,.57.59h22.11a.59.59,0,0,0,.6-.58h0V340.1Z" transform="translate(-183.82 -339.57)"/>
    </g>
  </g>
</svg>
